<mxfile host="65bd71144e" pages="3">
    <diagram id="3fwowlf9j1TdNnala_Y5" name="Architecture">
        <mxGraphModel dx="531" dy="437" grid="1" gridSize="10" guides="1" tooltips="1" connect="1" arrows="1" fold="1" page="1" pageScale="1" pageWidth="827" pageHeight="1169" math="0" shadow="0">
            <root>
                <mxCell id="0"/>
                <mxCell id="1" parent="0"/>
                <mxCell id="t5uwx31abI5WNG6DlKdW-1" value="&lt;b&gt;1&lt;/b&gt;&lt;br&gt;Client&lt;br style=&quot;font-size: 20px&quot;&gt;Interface utilisateur&lt;br style=&quot;font-size: 20px&quot;&gt;(UI)" style="rounded=0;whiteSpace=wrap;html=1;fontSize=20;" parent="1" vertex="1">
                    <mxGeometry x="120" y="120" width="200" height="120" as="geometry"/>
                </mxCell>
                <mxCell id="t5uwx31abI5WNG6DlKdW-2" value="&lt;b&gt;2&lt;/b&gt;&lt;br&gt;Serveur d'application" style="rounded=0;whiteSpace=wrap;html=1;fontSize=20;" parent="1" vertex="1">
                    <mxGeometry x="520" y="120" width="200" height="120" as="geometry"/>
                </mxCell>
                <mxCell id="t5uwx31abI5WNG6DlKdW-3" value="&lt;b&gt;3&lt;/b&gt;&lt;br&gt;Serveur de données" style="rounded=0;whiteSpace=wrap;html=1;fontSize=20;" parent="1" vertex="1">
                    <mxGeometry x="320" y="280" width="200" height="120" as="geometry"/>
                </mxCell>
                <mxCell id="t5uwx31abI5WNG6DlKdW-4" value="Architecture 3-tiers" style="rounded=0;whiteSpace=wrap;html=1;fontSize=20;fillColor=#dae8fc;strokeColor=#6c8ebf;" parent="1" vertex="1">
                    <mxGeometry x="40" y="40" width="760" height="40" as="geometry"/>
                </mxCell>
                <mxCell id="t5uwx31abI5WNG6DlKdW-5" value="Dans le cas d'un site Internet :" style="rounded=0;whiteSpace=wrap;html=1;fontSize=20;" parent="1" vertex="1">
                    <mxGeometry x="40" y="480" width="760" height="40" as="geometry"/>
                </mxCell>
                <mxCell id="t5uwx31abI5WNG6DlKdW-6" value="Interface utilisateur" style="rounded=0;whiteSpace=wrap;html=1;fontSize=16;fontStyle=1" parent="1" vertex="1">
                    <mxGeometry x="80" y="600" width="200" height="40" as="geometry"/>
                </mxCell>
                <mxCell id="t5uwx31abI5WNG6DlKdW-7" value="Tier 1" style="rounded=0;whiteSpace=wrap;html=1;fontSize=16;fontStyle=1" parent="1" vertex="1">
                    <mxGeometry x="80" y="560" width="200" height="40" as="geometry"/>
                </mxCell>
                <mxCell id="t5uwx31abI5WNG6DlKdW-8" value="Machine de l'utilisateur" style="rounded=0;whiteSpace=wrap;html=1;fontSize=16;" parent="1" vertex="1">
                    <mxGeometry x="80" y="640" width="200" height="40" as="geometry"/>
                </mxCell>
                <mxCell id="t5uwx31abI5WNG6DlKdW-9" value="navigateur Internet&lt;br&gt;(Firefox, Chrome, Edge, ...)" style="rounded=0;whiteSpace=wrap;html=1;fontSize=16;" parent="1" vertex="1">
                    <mxGeometry x="80" y="680" width="200" height="200" as="geometry"/>
                </mxCell>
                <mxCell id="t5uwx31abI5WNG6DlKdW-10" value="Serveur d'application" style="rounded=0;whiteSpace=wrap;html=1;fontSize=16;fontStyle=1" parent="1" vertex="1">
                    <mxGeometry x="320" y="600" width="200" height="40" as="geometry"/>
                </mxCell>
                <mxCell id="t5uwx31abI5WNG6DlKdW-11" value="Tier 2" style="rounded=0;whiteSpace=wrap;html=1;fontSize=16;fontStyle=1" parent="1" vertex="1">
                    <mxGeometry x="320" y="560" width="200" height="40" as="geometry"/>
                </mxCell>
                <mxCell id="t5uwx31abI5WNG6DlKdW-12" value="Ordinateur dans un datacenter" style="rounded=0;whiteSpace=wrap;html=1;fontSize=16;" parent="1" vertex="1">
                    <mxGeometry x="320" y="640" width="200" height="40" as="geometry"/>
                </mxCell>
                <mxCell id="t5uwx31abI5WNG6DlKdW-13" value="&lt;span style=&quot;font-size: 16px&quot;&gt;→ interprêteur Python &lt;br&gt;+ package Django &lt;br&gt;+ le code de l'application&lt;br&gt;&lt;/span&gt;&lt;br style=&quot;font-size: 16px&quot;&gt;&lt;span style=&quot;font-size: 16px&quot;&gt;→&amp;nbsp; serveur web&lt;br&gt;(IIS sous Windows, &lt;br&gt;Apache sous Linux, ...)&lt;/span&gt;" style="rounded=0;whiteSpace=wrap;html=1;fontSize=16;" parent="1" vertex="1">
                    <mxGeometry x="320" y="680" width="200" height="200" as="geometry"/>
                </mxCell>
                <mxCell id="t5uwx31abI5WNG6DlKdW-16" value="Serveur de données" style="rounded=0;whiteSpace=wrap;html=1;fontSize=16;fontStyle=1" parent="1" vertex="1">
                    <mxGeometry x="560" y="600" width="200" height="40" as="geometry"/>
                </mxCell>
                <mxCell id="t5uwx31abI5WNG6DlKdW-17" value="Tier 3" style="rounded=0;whiteSpace=wrap;html=1;fontSize=16;fontStyle=1" parent="1" vertex="1">
                    <mxGeometry x="560" y="560" width="200" height="40" as="geometry"/>
                </mxCell>
                <mxCell id="t5uwx31abI5WNG6DlKdW-18" value="Ordinateur dans un datacenter" style="rounded=0;whiteSpace=wrap;html=1;fontSize=16;" parent="1" vertex="1">
                    <mxGeometry x="560" y="640" width="200" height="40" as="geometry"/>
                </mxCell>
                <mxCell id="t5uwx31abI5WNG6DlKdW-19" value="&lt;span style=&quot;font-size: 16px&quot;&gt;→ I'application de base de données (serveur SQL -&amp;nbsp;&lt;br&gt;MySQL, PostgreSQL, Oracle, SQL Serveur)&lt;br&gt;&lt;/span&gt;&lt;br style=&quot;font-size: 16px&quot;&gt;&lt;span style=&quot;font-size: 16px&quot;&gt;→&amp;nbsp; Base de données&lt;br&gt;(architecture - modèle,&lt;br&gt;données - contenu)&lt;br&gt;&lt;/span&gt;" style="rounded=0;whiteSpace=wrap;html=1;fontSize=16;" parent="1" vertex="1">
                    <mxGeometry x="560" y="680" width="200" height="200" as="geometry"/>
                </mxCell>
            </root>
        </mxGraphModel>
    </diagram>
    <diagram id="xm1BHi7uaSfXYDnm-4M7" name="Modèle de données">
        <mxGraphModel dx="531" dy="437" grid="1" gridSize="10" guides="1" tooltips="1" connect="1" arrows="1" fold="1" page="1" pageScale="1" pageWidth="827" pageHeight="1169" math="0" shadow="0">
            <root>
                <mxCell id="RkSsTfMrb2YXSXwpdujd-0"/>
                <mxCell id="RkSsTfMrb2YXSXwpdujd-1" parent="RkSsTfMrb2YXSXwpdujd-0"/>
                <mxCell id="RkSsTfMrb2YXSXwpdujd-2" value="&lt;b&gt;Modèle de données relationnel&lt;/b&gt;" style="rounded=0;whiteSpace=wrap;html=1;fontSize=16;fillColor=#dae8fc;strokeColor=#6c8ebf;verticalAlign=middle;" parent="RkSsTfMrb2YXSXwpdujd-1" vertex="1">
                    <mxGeometry x="40" y="40" width="760" height="40" as="geometry"/>
                </mxCell>
                <mxCell id="RkSsTfMrb2YXSXwpdujd-7" value="Salle" style="rounded=0;whiteSpace=wrap;html=1;fontSize=16;fillColor=#dae8fc;strokeColor=#000000;verticalAlign=middle;" parent="RkSsTfMrb2YXSXwpdujd-1" vertex="1">
                    <mxGeometry x="40" y="360" width="200" height="40" as="geometry"/>
                </mxCell>
                <mxCell id="RkSsTfMrb2YXSXwpdujd-8" value="Formateur" style="rounded=0;whiteSpace=wrap;html=1;fontSize=16;fillColor=#dae8fc;strokeColor=#000000;verticalAlign=middle;" parent="RkSsTfMrb2YXSXwpdujd-1" vertex="1">
                    <mxGeometry x="680" y="600" width="200" height="40" as="geometry"/>
                </mxCell>
                <mxCell id="RkSsTfMrb2YXSXwpdujd-10" value="Etudiant" style="rounded=0;whiteSpace=wrap;html=1;fontSize=16;fillColor=#dae8fc;strokeColor=#000000;verticalAlign=middle;" parent="RkSsTfMrb2YXSXwpdujd-1" vertex="1">
                    <mxGeometry x="680" y="800" width="200" height="40" as="geometry"/>
                </mxCell>
                <mxCell id="RkSsTfMrb2YXSXwpdujd-11" value="Formation" style="rounded=0;whiteSpace=wrap;html=1;fontSize=16;fillColor=#dae8fc;strokeColor=#000000;verticalAlign=middle;" parent="RkSsTfMrb2YXSXwpdujd-1" vertex="1">
                    <mxGeometry x="40" y="600" width="200" height="40" as="geometry"/>
                </mxCell>
                <mxCell id="RkSsTfMrb2YXSXwpdujd-30" style="edgeStyle=orthogonalEdgeStyle;rounded=0;orthogonalLoop=1;jettySize=auto;html=1;exitX=1;exitY=0;exitDx=0;exitDy=0;entryX=0;entryY=0;entryDx=0;entryDy=0;fontSize=14;endArrow=none;endFill=0;verticalAlign=middle;" parent="RkSsTfMrb2YXSXwpdujd-1" source="RkSsTfMrb2YXSXwpdujd-12" target="lU5uM4_Tuax8x2KAB2Xz-7" edge="1">
                    <mxGeometry relative="1" as="geometry">
                        <Array as="points">
                            <mxPoint x="300" y="640"/>
                            <mxPoint x="300" y="640"/>
                        </Array>
                    </mxGeometry>
                </mxCell>
                <mxCell id="RkSsTfMrb2YXSXwpdujd-38" style="edgeStyle=orthogonalEdgeStyle;rounded=0;orthogonalLoop=1;jettySize=auto;html=1;exitX=0.5;exitY=1;exitDx=0;exitDy=0;entryX=0.5;entryY=0;entryDx=0;entryDy=0;fontSize=14;endArrow=none;endFill=0;verticalAlign=middle;" parent="RkSsTfMrb2YXSXwpdujd-1" source="RkSsTfMrb2YXSXwpdujd-12" target="RkSsTfMrb2YXSXwpdujd-36" edge="1">
                    <mxGeometry relative="1" as="geometry"/>
                </mxCell>
                <mxCell id="lU5uM4_Tuax8x2KAB2Xz-12" style="edgeStyle=orthogonalEdgeStyle;rounded=0;orthogonalLoop=1;jettySize=auto;html=1;exitX=1;exitY=1;exitDx=0;exitDy=0;endArrow=none;endFill=0;entryX=1;entryY=0;entryDx=0;entryDy=0;verticalAlign=middle;" parent="RkSsTfMrb2YXSXwpdujd-1" source="RkSsTfMrb2YXSXwpdujd-12" target="lU5uM4_Tuax8x2KAB2Xz-15" edge="1">
                    <mxGeometry relative="1" as="geometry">
                        <mxPoint x="490" y="840" as="targetPoint"/>
                        <Array as="points">
                            <mxPoint x="320" y="840"/>
                        </Array>
                    </mxGeometry>
                </mxCell>
                <mxCell id="RkSsTfMrb2YXSXwpdujd-12" value="&lt;b&gt;ID&lt;/b&gt;&lt;br&gt;Nom&lt;br&gt;Date de début&lt;br&gt;Date de fin&lt;br&gt;Jours de présence&lt;br&gt;Capacité en étudiants&lt;br&gt;Commentaires&lt;br&gt;&lt;b&gt;IDSalle&lt;/b&gt;&lt;br&gt;&lt;b&gt;IDCategorie&lt;/b&gt;" style="rounded=0;whiteSpace=wrap;html=1;fontSize=16;align=left;verticalAlign=middle;" parent="RkSsTfMrb2YXSXwpdujd-1" vertex="1">
                    <mxGeometry x="40" y="640" width="200" height="200" as="geometry"/>
                </mxCell>
                <mxCell id="RkSsTfMrb2YXSXwpdujd-21" style="edgeStyle=orthogonalEdgeStyle;rounded=0;orthogonalLoop=1;jettySize=auto;html=1;entryX=0.5;entryY=0;entryDx=0;entryDy=0;fontSize=16;endArrow=none;endFill=0;verticalAlign=middle;" parent="RkSsTfMrb2YXSXwpdujd-1" source="RkSsTfMrb2YXSXwpdujd-13" target="RkSsTfMrb2YXSXwpdujd-11" edge="1">
                    <mxGeometry relative="1" as="geometry"/>
                </mxCell>
                <mxCell id="RkSsTfMrb2YXSXwpdujd-13" value="&lt;b&gt;ID&lt;/b&gt;&lt;br&gt;Nom&lt;br&gt;Étage&lt;br&gt;Capacité d'accueil&lt;br&gt;Commentaires" style="rounded=0;whiteSpace=wrap;html=1;fontSize=16;align=left;verticalAlign=middle;" parent="RkSsTfMrb2YXSXwpdujd-1" vertex="1">
                    <mxGeometry x="40" y="400" width="200" height="120" as="geometry"/>
                </mxCell>
                <mxCell id="RkSsTfMrb2YXSXwpdujd-48" style="edgeStyle=orthogonalEdgeStyle;rounded=0;orthogonalLoop=1;jettySize=auto;html=1;exitX=1;exitY=0;exitDx=0;exitDy=0;entryX=0;entryY=0;entryDx=0;entryDy=0;fontSize=14;endArrow=none;endFill=0;verticalAlign=middle;" parent="RkSsTfMrb2YXSXwpdujd-1" source="RkSsTfMrb2YXSXwpdujd-14" target="RkSsTfMrb2YXSXwpdujd-53" edge="1">
                    <mxGeometry relative="1" as="geometry">
                        <Array as="points">
                            <mxPoint x="940" y="640"/>
                            <mxPoint x="940" y="640"/>
                        </Array>
                    </mxGeometry>
                </mxCell>
                <mxCell id="RkSsTfMrb2YXSXwpdujd-14" value="&lt;b&gt;ID&lt;/b&gt;&lt;br&gt;Nom&lt;br&gt;Prénom&lt;br&gt;Statut&lt;br&gt;Compétences&lt;br&gt;Commentaires&lt;br&gt;&lt;b&gt;IDStatut&lt;/b&gt;" style="rounded=0;whiteSpace=wrap;html=1;fontSize=16;align=left;verticalAlign=middle;" parent="RkSsTfMrb2YXSXwpdujd-1" vertex="1">
                    <mxGeometry x="680" y="640" width="200" height="140" as="geometry"/>
                </mxCell>
                <mxCell id="RkSsTfMrb2YXSXwpdujd-15" value="&lt;b&gt;ID&lt;/b&gt;&lt;br&gt;Nom&lt;br&gt;Prénom&lt;br&gt;Date de naissance&lt;br&gt;Sexe&lt;br&gt;Formation(s) suivie(s)&lt;br&gt;Financement&lt;br&gt;Commentaires" style="rounded=0;whiteSpace=wrap;html=1;fontSize=16;align=left;verticalAlign=middle;" parent="RkSsTfMrb2YXSXwpdujd-1" vertex="1">
                    <mxGeometry x="680" y="840" width="200" height="160" as="geometry"/>
                </mxCell>
                <mxCell id="RkSsTfMrb2YXSXwpdujd-16" value="&lt;b&gt;Légende&lt;/b&gt;" style="rounded=0;whiteSpace=wrap;html=1;fontSize=16;align=center;verticalAlign=top;" parent="RkSsTfMrb2YXSXwpdujd-1" vertex="1">
                    <mxGeometry x="961" y="40" width="200" height="440" as="geometry"/>
                </mxCell>
                <mxCell id="RkSsTfMrb2YXSXwpdujd-17" value="Entité&lt;br&gt;Table&lt;br&gt;Modèle (classe)" style="rounded=0;whiteSpace=wrap;html=1;fontSize=16;fillColor=#dae8fc;strokeColor=#000000;verticalAlign=middle;" parent="RkSsTfMrb2YXSXwpdujd-1" vertex="1">
                    <mxGeometry x="971" y="80" width="180" height="70" as="geometry"/>
                </mxCell>
                <mxCell id="RkSsTfMrb2YXSXwpdujd-18" value="Caractéristiques&lt;br&gt;Champs (colonnes)&lt;br&gt;Propriétés" style="rounded=0;whiteSpace=wrap;html=1;fontSize=16;strokeColor=#000000;align=left;verticalAlign=middle;" parent="RkSsTfMrb2YXSXwpdujd-1" vertex="1">
                    <mxGeometry x="971" y="150" width="180" height="70" as="geometry"/>
                </mxCell>
                <mxCell id="RkSsTfMrb2YXSXwpdujd-20" value="&amp;nbsp;Relation&amp;nbsp;" style="edgeStyle=orthogonalEdgeStyle;rounded=0;orthogonalLoop=1;jettySize=auto;html=1;fontSize=16;endArrow=none;endFill=0;verticalAlign=middle;align=center;" parent="RkSsTfMrb2YXSXwpdujd-1" edge="1">
                    <mxGeometry x="-0.0125" relative="1" as="geometry">
                        <mxPoint x="981" y="250" as="sourcePoint"/>
                        <mxPoint x="1141" y="250" as="targetPoint"/>
                        <mxPoint as="offset"/>
                    </mxGeometry>
                </mxCell>
                <mxCell id="RkSsTfMrb2YXSXwpdujd-23" value="&lt;b&gt;Types de relations et cardinalités&lt;br&gt;&lt;/b&gt;" style="rounded=0;whiteSpace=wrap;html=1;fontSize=16;align=center;verticalAlign=top;" parent="RkSsTfMrb2YXSXwpdujd-1" vertex="1">
                    <mxGeometry x="1241" y="40" width="400" height="340" as="geometry"/>
                </mxCell>
                <mxCell id="RkSsTfMrb2YXSXwpdujd-27" value="&lt;u&gt;Construction des relations :&lt;/u&gt;&lt;br&gt;&lt;br&gt;1 salle peut accueillir 1 ou plusieurs formations → 0-n&lt;br&gt;1 formation a lieue dans 1 et une seule salle → 1-1&lt;br&gt;donc relation 0/1-n (one to many) entre Salle et Formation&lt;br&gt;&lt;br&gt;1 formation possède 1 et une seule catégorie → 1-1&lt;br&gt;1 catégorie peut être associée à 1 ou plusieurs formations → 0-n&lt;br&gt;donc relation 0/1-n (one to many) entre Formation et Catégorie&lt;br&gt;&lt;br&gt;1 formation est dispensée par au moins 1 formateur → 1-n&lt;br&gt;1 formateur peut intervenir sur 1 ou plusieurs formations → 0-n&lt;br&gt;donc relation n-n (many to many) entre Formation et Formateur&lt;br&gt;&lt;br&gt;1 formateur possède 1 et un seul statut → 1-1&lt;br&gt;1 statut peut être associé à 1 ou plusieurs formateurs → 0-n&lt;br&gt;donc relation 0/1 - n (one to many) entre Formateur et Statut&lt;br&gt;&lt;br&gt;1 formateur peut avoir 1 ou plusieurs compétences → 1-n&lt;br&gt;1 compétence peut exister chez plusieurs formateurs → 0-n&lt;br&gt;donc relation n - n (many to many) entre Formateur et Compétence&lt;br&gt;&lt;br&gt;1 formation doit concerner au moins 1 étudiant → 1-n&lt;br&gt;1 étudiant doit participer à au moins 1 formation → 1-n&lt;br&gt;donc relation n-n (many to many) entre Formation et Étudiant&lt;br&gt;&lt;br&gt;1 étudiant doit être financé par au moins 1 source de financement → 1-n&lt;br&gt;1 source de financement peut concerner plusieurs étudiants → 0-n&lt;br&gt;donc relation n-n (many to many) entre Étudiant et Financement" style="rounded=0;whiteSpace=wrap;html=1;fontSize=16;strokeColor=#000000;align=left;verticalAlign=middle;" parent="RkSsTfMrb2YXSXwpdujd-1" vertex="1">
                    <mxGeometry x="40" y="1240" width="760" height="600" as="geometry"/>
                </mxCell>
                <mxCell id="RkSsTfMrb2YXSXwpdujd-28" value="0-n" style="rounded=0;whiteSpace=wrap;html=1;fontSize=14;strokeColor=#000000;align=center;verticalAlign=middle;spacing=0;" parent="RkSsTfMrb2YXSXwpdujd-1" vertex="1">
                    <mxGeometry x="100" y="520" width="40" height="20" as="geometry"/>
                </mxCell>
                <mxCell id="RkSsTfMrb2YXSXwpdujd-29" value="1-1" style="rounded=0;whiteSpace=wrap;html=1;fontSize=14;strokeColor=#000000;align=center;verticalAlign=middle;spacing=0;" parent="RkSsTfMrb2YXSXwpdujd-1" vertex="1">
                    <mxGeometry x="140" y="580" width="40" height="20" as="geometry"/>
                </mxCell>
                <mxCell id="RkSsTfMrb2YXSXwpdujd-31" value="1-n" style="rounded=0;whiteSpace=wrap;html=1;fontSize=14;strokeColor=#000000;align=center;verticalAlign=middle;spacing=0;" parent="RkSsTfMrb2YXSXwpdujd-1" vertex="1">
                    <mxGeometry x="240" y="620" width="40" height="20" as="geometry"/>
                </mxCell>
                <mxCell id="RkSsTfMrb2YXSXwpdujd-32" value="0-n" style="rounded=0;whiteSpace=wrap;html=1;fontSize=14;strokeColor=#000000;align=center;verticalAlign=middle;spacing=0;" parent="RkSsTfMrb2YXSXwpdujd-1" vertex="1">
                    <mxGeometry x="640" y="620" width="40" height="20" as="geometry"/>
                </mxCell>
                <mxCell id="RkSsTfMrb2YXSXwpdujd-34" value="1-n" style="rounded=0;whiteSpace=wrap;html=1;fontSize=14;strokeColor=#000000;align=center;verticalAlign=middle;spacing=0;" parent="RkSsTfMrb2YXSXwpdujd-1" vertex="1">
                    <mxGeometry x="240" y="820" width="40" height="20" as="geometry"/>
                </mxCell>
                <mxCell id="RkSsTfMrb2YXSXwpdujd-35" value="1-n" style="rounded=0;whiteSpace=wrap;html=1;fontSize=14;strokeColor=#000000;align=center;verticalAlign=middle;spacing=0;" parent="RkSsTfMrb2YXSXwpdujd-1" vertex="1">
                    <mxGeometry x="640" y="820" width="40" height="20" as="geometry"/>
                </mxCell>
                <mxCell id="RkSsTfMrb2YXSXwpdujd-36" value="Catégorie" style="rounded=0;whiteSpace=wrap;html=1;fontSize=16;fillColor=#dae8fc;strokeColor=#000000;fontStyle=1;verticalAlign=middle;" parent="RkSsTfMrb2YXSXwpdujd-1" vertex="1">
                    <mxGeometry x="40" y="920" width="200" height="40" as="geometry"/>
                </mxCell>
                <mxCell id="RkSsTfMrb2YXSXwpdujd-37" value="ID&lt;br&gt;Nom" style="rounded=0;whiteSpace=wrap;html=1;fontSize=16;align=left;fontStyle=1;verticalAlign=middle;" parent="RkSsTfMrb2YXSXwpdujd-1" vertex="1">
                    <mxGeometry x="40" y="960" width="200" height="50" as="geometry"/>
                </mxCell>
                <mxCell id="RkSsTfMrb2YXSXwpdujd-39" value="1-1" style="rounded=0;whiteSpace=wrap;html=1;fontSize=14;strokeColor=#000000;align=center;verticalAlign=middle;spacing=0;" parent="RkSsTfMrb2YXSXwpdujd-1" vertex="1">
                    <mxGeometry x="100" y="840" width="40" height="20" as="geometry"/>
                </mxCell>
                <mxCell id="RkSsTfMrb2YXSXwpdujd-40" value="0-n" style="rounded=0;whiteSpace=wrap;html=1;fontSize=14;strokeColor=#000000;align=center;verticalAlign=middle;spacing=0;" parent="RkSsTfMrb2YXSXwpdujd-1" vertex="1">
                    <mxGeometry x="140" y="900" width="40" height="20" as="geometry"/>
                </mxCell>
                <mxCell id="RkSsTfMrb2YXSXwpdujd-41" style="edgeStyle=orthogonalEdgeStyle;rounded=0;orthogonalLoop=1;jettySize=auto;html=1;exitX=0.5;exitY=0;exitDx=0;exitDy=0;entryX=0.5;entryY=1;entryDx=0;entryDy=0;fontSize=14;endArrow=none;endFill=0;verticalAlign=middle;" parent="RkSsTfMrb2YXSXwpdujd-1" source="RkSsTfMrb2YXSXwpdujd-8" target="RkSsTfMrb2YXSXwpdujd-43" edge="1">
                    <mxGeometry relative="1" as="geometry">
                        <mxPoint x="740" y="350" as="sourcePoint"/>
                    </mxGeometry>
                </mxCell>
                <mxCell id="RkSsTfMrb2YXSXwpdujd-42" value="Statut" style="rounded=0;whiteSpace=wrap;html=1;fontSize=16;fillColor=#dae8fc;strokeColor=#000000;fontStyle=1;verticalAlign=middle;" parent="RkSsTfMrb2YXSXwpdujd-1" vertex="1">
                    <mxGeometry x="680" y="430" width="200" height="40" as="geometry"/>
                </mxCell>
                <mxCell id="RkSsTfMrb2YXSXwpdujd-43" value="ID&lt;br&gt;Nom" style="rounded=0;whiteSpace=wrap;html=1;fontSize=16;align=left;fontStyle=1;verticalAlign=middle;" parent="RkSsTfMrb2YXSXwpdujd-1" vertex="1">
                    <mxGeometry x="680" y="470" width="200" height="50" as="geometry"/>
                </mxCell>
                <mxCell id="RkSsTfMrb2YXSXwpdujd-44" value="1-1" style="rounded=0;whiteSpace=wrap;html=1;fontSize=14;strokeColor=#000000;align=center;verticalAlign=middle;spacing=0;" parent="RkSsTfMrb2YXSXwpdujd-1" vertex="1">
                    <mxGeometry x="740" y="580" width="40" height="20" as="geometry"/>
                </mxCell>
                <mxCell id="RkSsTfMrb2YXSXwpdujd-45" value="0-n" style="rounded=0;whiteSpace=wrap;html=1;fontSize=14;strokeColor=#000000;align=center;verticalAlign=middle;spacing=0;" parent="RkSsTfMrb2YXSXwpdujd-1" vertex="1">
                    <mxGeometry x="780" y="520" width="40" height="20" as="geometry"/>
                </mxCell>
                <mxCell id="RkSsTfMrb2YXSXwpdujd-46" value="Compétence" style="rounded=0;whiteSpace=wrap;html=1;fontSize=16;fillColor=#dae8fc;strokeColor=#000000;verticalAlign=middle;fontStyle=1" parent="RkSsTfMrb2YXSXwpdujd-1" vertex="1">
                    <mxGeometry x="1001" y="760" width="200" height="40" as="geometry"/>
                </mxCell>
                <mxCell id="RkSsTfMrb2YXSXwpdujd-47" value="ID&lt;br&gt;Nom" style="rounded=0;whiteSpace=wrap;html=1;fontSize=16;align=left;verticalAlign=middle;fontStyle=1" parent="RkSsTfMrb2YXSXwpdujd-1" vertex="1">
                    <mxGeometry x="1001" y="800" width="200" height="50" as="geometry"/>
                </mxCell>
                <mxCell id="RkSsTfMrb2YXSXwpdujd-49" value="1-n" style="rounded=0;whiteSpace=wrap;html=1;fontSize=14;strokeColor=#000000;align=center;verticalAlign=middle;spacing=0;" parent="RkSsTfMrb2YXSXwpdujd-1" vertex="1">
                    <mxGeometry x="880" y="640" width="40" height="20" as="geometry"/>
                </mxCell>
                <mxCell id="RkSsTfMrb2YXSXwpdujd-55" style="edgeStyle=orthogonalEdgeStyle;rounded=0;orthogonalLoop=1;jettySize=auto;html=1;exitX=0;exitY=1;exitDx=0;exitDy=0;fontSize=14;endArrow=none;endFill=0;entryX=0.5;entryY=1;entryDx=0;entryDy=0;verticalAlign=middle;" parent="RkSsTfMrb2YXSXwpdujd-1" source="RkSsTfMrb2YXSXwpdujd-50" target="RkSsTfMrb2YXSXwpdujd-53" edge="1">
                    <mxGeometry relative="1" as="geometry">
                        <Array as="points">
                            <mxPoint x="1101" y="695"/>
                            <mxPoint x="1101" y="695"/>
                        </Array>
                        <mxPoint x="1261" y="720" as="targetPoint"/>
                    </mxGeometry>
                </mxCell>
                <mxCell id="RkSsTfMrb2YXSXwpdujd-50" value="0-n" style="rounded=0;whiteSpace=wrap;html=1;fontSize=14;strokeColor=#000000;align=center;verticalAlign=middle;spacing=0;" parent="RkSsTfMrb2YXSXwpdujd-1" vertex="1">
                    <mxGeometry x="1101" y="740" width="40" height="20" as="geometry"/>
                </mxCell>
                <mxCell id="RkSsTfMrb2YXSXwpdujd-52" value="FormateurCompétence" style="rounded=0;whiteSpace=wrap;html=1;fontSize=16;fillColor=#dae8fc;strokeColor=#000000;verticalAlign=middle;fontStyle=1" parent="RkSsTfMrb2YXSXwpdujd-1" vertex="1">
                    <mxGeometry x="1001" y="600" width="200" height="40" as="geometry"/>
                </mxCell>
                <mxCell id="RkSsTfMrb2YXSXwpdujd-53" value="IDFormateur&lt;br&gt;IDCompétence" style="rounded=0;whiteSpace=wrap;html=1;fontSize=16;align=left;verticalAlign=middle;fontStyle=1" parent="RkSsTfMrb2YXSXwpdujd-1" vertex="1">
                    <mxGeometry x="1001" y="640" width="200" height="50" as="geometry"/>
                </mxCell>
                <mxCell id="RkSsTfMrb2YXSXwpdujd-54" value="1-1" style="rounded=0;whiteSpace=wrap;html=1;fontSize=14;strokeColor=#000000;align=center;verticalAlign=middle;spacing=0;" parent="RkSsTfMrb2YXSXwpdujd-1" vertex="1">
                    <mxGeometry x="961" y="620" width="40" height="20" as="geometry"/>
                </mxCell>
                <mxCell id="RkSsTfMrb2YXSXwpdujd-56" value="1-1" style="rounded=0;whiteSpace=wrap;html=1;fontSize=14;strokeColor=#000000;align=center;verticalAlign=middle;spacing=0;" parent="RkSsTfMrb2YXSXwpdujd-1" vertex="1">
                    <mxGeometry x="1061" y="690" width="40" height="20" as="geometry"/>
                </mxCell>
                <mxCell id="THfrA0R3KsdHlotWDXfm-0" value="Financement" style="rounded=0;whiteSpace=wrap;html=1;fontSize=16;fillColor=#dae8fc;strokeColor=#000000;verticalAlign=middle;fontStyle=1" parent="RkSsTfMrb2YXSXwpdujd-1" vertex="1">
                    <mxGeometry x="1001" y="1079" width="200" height="40" as="geometry"/>
                </mxCell>
                <mxCell id="THfrA0R3KsdHlotWDXfm-1" value="ID&lt;br&gt;Nom" style="rounded=0;whiteSpace=wrap;html=1;fontSize=16;align=left;verticalAlign=middle;fontStyle=1" parent="RkSsTfMrb2YXSXwpdujd-1" vertex="1">
                    <mxGeometry x="1001" y="1119" width="200" height="50" as="geometry"/>
                </mxCell>
                <mxCell id="THfrA0R3KsdHlotWDXfm-6" style="edgeStyle=orthogonalEdgeStyle;rounded=0;orthogonalLoop=1;jettySize=auto;html=1;exitX=0;exitY=1;exitDx=0;exitDy=0;entryX=0;entryY=0;entryDx=0;entryDy=0;endArrow=none;endFill=0;verticalAlign=middle;" parent="RkSsTfMrb2YXSXwpdujd-1" source="THfrA0R3KsdHlotWDXfm-8" target="THfrA0R3KsdHlotWDXfm-1" edge="1">
                    <mxGeometry relative="1" as="geometry">
                        <Array as="points">
                            <mxPoint x="940" y="1119"/>
                            <mxPoint x="940" y="1119"/>
                        </Array>
                    </mxGeometry>
                </mxCell>
                <mxCell id="THfrA0R3KsdHlotWDXfm-7" style="edgeStyle=orthogonalEdgeStyle;rounded=0;orthogonalLoop=1;jettySize=auto;html=1;exitX=0.5;exitY=0;exitDx=0;exitDy=0;entryX=0.5;entryY=1;entryDx=0;entryDy=0;endArrow=none;endFill=0;verticalAlign=middle;" parent="RkSsTfMrb2YXSXwpdujd-1" source="THfrA0R3KsdHlotWDXfm-2" target="RkSsTfMrb2YXSXwpdujd-15" edge="1">
                    <mxGeometry relative="1" as="geometry"/>
                </mxCell>
                <mxCell id="THfrA0R3KsdHlotWDXfm-2" value="EtudiantFinancement" style="rounded=0;whiteSpace=wrap;html=1;fontSize=16;fillColor=#dae8fc;strokeColor=#000000;verticalAlign=middle;fontStyle=1" parent="RkSsTfMrb2YXSXwpdujd-1" vertex="1">
                    <mxGeometry x="680" y="1079" width="200" height="40" as="geometry"/>
                </mxCell>
                <mxCell id="THfrA0R3KsdHlotWDXfm-3" value="IDEtudiant&lt;br&gt;IDFinancement" style="rounded=0;whiteSpace=wrap;html=1;fontSize=16;align=left;verticalAlign=middle;fontStyle=1" parent="RkSsTfMrb2YXSXwpdujd-1" vertex="1">
                    <mxGeometry x="680" y="1119" width="200" height="50" as="geometry"/>
                </mxCell>
                <mxCell id="THfrA0R3KsdHlotWDXfm-4" value="1-1" style="rounded=0;whiteSpace=wrap;html=1;fontSize=14;strokeColor=#000000;align=center;verticalAlign=middle;spacing=0;" parent="RkSsTfMrb2YXSXwpdujd-1" vertex="1">
                    <mxGeometry x="740" y="1059" width="40" height="20" as="geometry"/>
                </mxCell>
                <mxCell id="THfrA0R3KsdHlotWDXfm-8" value="1-1" style="rounded=0;whiteSpace=wrap;html=1;fontSize=14;strokeColor=#000000;align=center;verticalAlign=middle;spacing=0;" parent="RkSsTfMrb2YXSXwpdujd-1" vertex="1">
                    <mxGeometry x="880" y="1099" width="40" height="20" as="geometry"/>
                </mxCell>
                <mxCell id="THfrA0R3KsdHlotWDXfm-10" value="1-n" style="rounded=0;whiteSpace=wrap;html=1;fontSize=14;strokeColor=#000000;align=center;verticalAlign=middle;spacing=0;" parent="RkSsTfMrb2YXSXwpdujd-1" vertex="1">
                    <mxGeometry x="780" y="1000" width="40" height="20" as="geometry"/>
                </mxCell>
                <mxCell id="THfrA0R3KsdHlotWDXfm-11" value="0-n" style="rounded=0;whiteSpace=wrap;html=1;fontSize=14;strokeColor=#000000;align=center;verticalAlign=middle;spacing=0;" parent="RkSsTfMrb2YXSXwpdujd-1" vertex="1">
                    <mxGeometry x="961" y="1119" width="40" height="20" as="geometry"/>
                </mxCell>
                <mxCell id="l940fCGvDy6tXgbCREAX-0" value="Cas :&lt;br&gt;&lt;br&gt;On veut gérer un bâtiment avec des formations et pouvoir savoir à un instant donné,&lt;br&gt;qui est dans le bâtiment et pour y faire quoi" style="rounded=0;whiteSpace=wrap;html=1;fontSize=16;verticalAlign=middle;" parent="RkSsTfMrb2YXSXwpdujd-1" vertex="1">
                    <mxGeometry x="40" y="120" width="760" height="80" as="geometry"/>
                </mxCell>
                <mxCell id="lU5uM4_Tuax8x2KAB2Xz-0" value="On va donc avoir à gérer les entités de base suivantes :&lt;br&gt;des salles (qui composent le bâtiment), des formations, des étudiants, des formateurs&lt;br&gt;&lt;br&gt;Chaque entité ayant un nombre de caractéristiques spécifiques" style="rounded=0;whiteSpace=wrap;html=1;fontSize=16;verticalAlign=middle;" parent="RkSsTfMrb2YXSXwpdujd-1" vertex="1">
                    <mxGeometry x="40" y="220" width="760" height="100" as="geometry"/>
                </mxCell>
                <mxCell id="lU5uM4_Tuax8x2KAB2Xz-1" value="Information&lt;br&gt;(entité et caractéristique)&lt;br&gt;&lt;br&gt;de base&lt;br&gt;&lt;br&gt;&lt;b&gt;étendue&lt;/b&gt;&lt;br&gt;(pour atteindre le modèle final pertinent)" style="rounded=0;whiteSpace=wrap;html=1;fontSize=16;strokeColor=#000000;align=center;verticalAlign=middle;" parent="RkSsTfMrb2YXSXwpdujd-1" vertex="1">
                    <mxGeometry x="971" y="280" width="180" height="170" as="geometry"/>
                </mxCell>
                <mxCell id="lU5uM4_Tuax8x2KAB2Xz-6" value="FormationFormateur" style="rounded=0;whiteSpace=wrap;html=1;fontSize=16;fillColor=#dae8fc;strokeColor=#000000;fontStyle=1;verticalAlign=middle;" parent="RkSsTfMrb2YXSXwpdujd-1" vertex="1">
                    <mxGeometry x="360" y="600" width="200" height="40" as="geometry"/>
                </mxCell>
                <mxCell id="lU5uM4_Tuax8x2KAB2Xz-10" style="edgeStyle=orthogonalEdgeStyle;rounded=0;orthogonalLoop=1;jettySize=auto;html=1;exitX=1;exitY=0;exitDx=0;exitDy=0;entryX=0;entryY=0;entryDx=0;entryDy=0;endArrow=none;endFill=0;verticalAlign=middle;" parent="RkSsTfMrb2YXSXwpdujd-1" source="lU5uM4_Tuax8x2KAB2Xz-7" target="RkSsTfMrb2YXSXwpdujd-14" edge="1">
                    <mxGeometry relative="1" as="geometry">
                        <Array as="points">
                            <mxPoint x="600" y="640"/>
                            <mxPoint x="600" y="640"/>
                        </Array>
                    </mxGeometry>
                </mxCell>
                <mxCell id="lU5uM4_Tuax8x2KAB2Xz-7" value="IDFormation&lt;br&gt;IDFormateur" style="rounded=0;whiteSpace=wrap;html=1;fontSize=16;align=left;fontStyle=1;verticalAlign=middle;" parent="RkSsTfMrb2YXSXwpdujd-1" vertex="1">
                    <mxGeometry x="360" y="640" width="200" height="50" as="geometry"/>
                </mxCell>
                <mxCell id="lU5uM4_Tuax8x2KAB2Xz-9" value="1-1" style="rounded=0;whiteSpace=wrap;html=1;fontSize=14;strokeColor=#000000;align=center;verticalAlign=middle;spacing=0;" parent="RkSsTfMrb2YXSXwpdujd-1" vertex="1">
                    <mxGeometry x="320" y="640" width="40" height="20" as="geometry"/>
                </mxCell>
                <mxCell id="lU5uM4_Tuax8x2KAB2Xz-11" value="1-1" style="rounded=0;whiteSpace=wrap;html=1;fontSize=14;strokeColor=#000000;align=center;verticalAlign=middle;spacing=0;" parent="RkSsTfMrb2YXSXwpdujd-1" vertex="1">
                    <mxGeometry x="560" y="640" width="40" height="20" as="geometry"/>
                </mxCell>
                <mxCell id="lU5uM4_Tuax8x2KAB2Xz-13" value="FormationÉtudiant" style="rounded=0;whiteSpace=wrap;html=1;fontSize=16;fillColor=#dae8fc;strokeColor=#000000;fontStyle=1;verticalAlign=middle;" parent="RkSsTfMrb2YXSXwpdujd-1" vertex="1">
                    <mxGeometry x="360" y="800" width="200" height="40" as="geometry"/>
                </mxCell>
                <mxCell id="lU5uM4_Tuax8x2KAB2Xz-14" value="IDFormation&lt;br&gt;IDÉtudiant" style="rounded=0;whiteSpace=wrap;html=1;fontSize=16;align=left;fontStyle=1;verticalAlign=middle;" parent="RkSsTfMrb2YXSXwpdujd-1" vertex="1">
                    <mxGeometry x="360" y="840" width="200" height="50" as="geometry"/>
                </mxCell>
                <mxCell id="lU5uM4_Tuax8x2KAB2Xz-15" value="1-1" style="rounded=0;whiteSpace=wrap;html=1;fontSize=14;strokeColor=#000000;align=center;verticalAlign=middle;spacing=0;" parent="RkSsTfMrb2YXSXwpdujd-1" vertex="1">
                    <mxGeometry x="320" y="840" width="40" height="20" as="geometry"/>
                </mxCell>
                <mxCell id="lU5uM4_Tuax8x2KAB2Xz-17" style="edgeStyle=orthogonalEdgeStyle;rounded=0;orthogonalLoop=1;jettySize=auto;html=1;exitX=0;exitY=0;exitDx=0;exitDy=0;entryX=1;entryY=1;entryDx=0;entryDy=0;endArrow=none;endFill=0;verticalAlign=middle;" parent="RkSsTfMrb2YXSXwpdujd-1" source="lU5uM4_Tuax8x2KAB2Xz-16" target="RkSsTfMrb2YXSXwpdujd-35" edge="1">
                    <mxGeometry relative="1" as="geometry">
                        <Array as="points">
                            <mxPoint x="630" y="840"/>
                            <mxPoint x="630" y="840"/>
                        </Array>
                    </mxGeometry>
                </mxCell>
                <mxCell id="lU5uM4_Tuax8x2KAB2Xz-16" value="1-1" style="rounded=0;whiteSpace=wrap;html=1;fontSize=14;strokeColor=#000000;align=center;verticalAlign=middle;spacing=0;" parent="RkSsTfMrb2YXSXwpdujd-1" vertex="1">
                    <mxGeometry x="560" y="840" width="40" height="20" as="geometry"/>
                </mxCell>
                <mxCell id="lU5uM4_Tuax8x2KAB2Xz-23" value="&lt;b style=&quot;font-size: 16px;&quot;&gt;Cardinalités&lt;br style=&quot;font-size: 16px;&quot;&gt;&lt;br style=&quot;font-size: 16px;&quot;&gt;0 - 1&lt;/b&gt; → peut avoir un et un seul ...&lt;br style=&quot;font-size: 16px;&quot;&gt;&lt;b style=&quot;font-size: 16px;&quot;&gt;0 - n&lt;/b&gt;&amp;nbsp;→ peut avoir un ou plusieurs ...&lt;br style=&quot;font-size: 16px;&quot;&gt;&lt;b style=&quot;font-size: 16px;&quot;&gt;1 - 1&lt;/b&gt;&amp;nbsp;→ doit avoir un et un seul ...&lt;br style=&quot;font-size: 16px;&quot;&gt;&lt;b style=&quot;font-size: 16px;&quot;&gt;1 - n&lt;/b&gt;&amp;nbsp;→ doit avoir un ou plusieurs ...&lt;br style=&quot;font-size: 16px;&quot;&gt;&amp;nbsp; &amp;nbsp; &amp;nbsp; &amp;nbsp; &amp;nbsp; (doit avoir au minimum un ...)" style="rounded=0;whiteSpace=wrap;html=1;fontSize=16;strokeColor=#000000;align=center;verticalAlign=middle;spacing=0;" parent="RkSsTfMrb2YXSXwpdujd-1" vertex="1">
                    <mxGeometry x="1261" y="210" width="360" height="150" as="geometry"/>
                </mxCell>
                <mxCell id="lU5uM4_Tuax8x2KAB2Xz-27" value="&lt;b&gt;Notes&lt;br&gt;&lt;/b&gt;" style="rounded=0;whiteSpace=wrap;html=1;fontSize=16;align=center;verticalAlign=top;" parent="RkSsTfMrb2YXSXwpdujd-1" vertex="1">
                    <mxGeometry x="1241" y="440" width="400" height="480" as="geometry"/>
                </mxCell>
                <mxCell id="lU5uM4_Tuax8x2KAB2Xz-28" value="Une table doit toujours avoir une &lt;b&gt;clé primaire&lt;/b&gt; unique (idéalement nommée &lt;b&gt;ID&lt;/b&gt;) sauf éventuellement les tables intermédiaires (n - n) dont la clé primaire peut être constituée par l'agrégation des clés étrangères" style="rounded=0;whiteSpace=wrap;html=1;fontSize=16;strokeColor=#000000;align=left;verticalAlign=middle;" parent="RkSsTfMrb2YXSXwpdujd-1" vertex="1">
                    <mxGeometry x="1251" y="480" width="380" height="90" as="geometry"/>
                </mxCell>
                <mxCell id="lU5uM4_Tuax8x2KAB2Xz-29" value="Dans une relation 0/1 - n, la clé étrangère se trouve toujours du côté de la table ayant la cardinalité 0-1 ou 1-1" style="rounded=0;whiteSpace=wrap;html=1;fontSize=16;strokeColor=#000000;align=left;verticalAlign=middle;" parent="RkSsTfMrb2YXSXwpdujd-1" vertex="1">
                    <mxGeometry x="1251" y="700" width="380" height="90" as="geometry"/>
                </mxCell>
                <mxCell id="lU5uM4_Tuax8x2KAB2Xz-30" value="Dans une relation n - n, les clés étrangères se trouvent dans une table intermédiaire, qui possède systématiquement les cardinalités 1-1 en sortie" style="rounded=0;whiteSpace=wrap;html=1;fontSize=16;strokeColor=#000000;align=left;verticalAlign=middle;" parent="RkSsTfMrb2YXSXwpdujd-1" vertex="1">
                    <mxGeometry x="1251" y="810" width="380" height="90" as="geometry"/>
                </mxCell>
                <mxCell id="lU5uM4_Tuax8x2KAB2Xz-31" value="Une &lt;b&gt;clé étrangère&lt;/b&gt; est toujours reliée à une clé primaire, la clé étrangère est idéalement nommée ID&amp;lt;Nom de la table ayant la clé primaire&amp;gt; (ou &amp;lt;Nom de la table ayant la clé primaire&amp;gt;ID)" style="rounded=0;whiteSpace=wrap;html=1;fontSize=16;strokeColor=#000000;align=left;verticalAlign=middle;" parent="RkSsTfMrb2YXSXwpdujd-1" vertex="1">
                    <mxGeometry x="1251" y="590" width="380" height="90" as="geometry"/>
                </mxCell>
                <mxCell id="lU5uM4_Tuax8x2KAB2Xz-32" value="&lt;b style=&quot;font-size: 16px;&quot;&gt;Types de relation&lt;br style=&quot;font-size: 16px;&quot;&gt;&lt;br style=&quot;font-size: 16px;&quot;&gt;&lt;/b&gt;&lt;b style=&quot;font-size: 16px;&quot;&gt;0/1 - 1&lt;/b&gt;&amp;nbsp;→ one to one&lt;b style=&quot;font-size: 16px;&quot;&gt;&lt;br style=&quot;font-size: 16px;&quot;&gt;0/1 - n&lt;/b&gt;&amp;nbsp;→ one to many&lt;br style=&quot;font-size: 16px;&quot;&gt;&lt;b style=&quot;font-size: 16px;&quot;&gt;n - n&lt;/b&gt;&amp;nbsp;→ many to many" style="rounded=0;whiteSpace=wrap;html=1;fontSize=16;strokeColor=#000000;align=center;verticalAlign=middle;spacing=0;" parent="RkSsTfMrb2YXSXwpdujd-1" vertex="1">
                    <mxGeometry x="1261" y="80" width="360" height="110" as="geometry"/>
                </mxCell>
            </root>
        </mxGraphModel>
    </diagram>
    <diagram id="nH74vEm0JgLFPprQ9lT3" name="SQL">
        <mxGraphModel dx="531" dy="437" grid="1" gridSize="10" guides="1" tooltips="1" connect="1" arrows="1" fold="1" page="1" pageScale="1" pageWidth="827" pageHeight="1169" math="0" shadow="0">
            <root>
                <mxCell id="zD9mNbCKYA1uL3fGXbPz-0"/>
                <mxCell id="zD9mNbCKYA1uL3fGXbPz-1" parent="zD9mNbCKYA1uL3fGXbPz-0"/>
                <mxCell id="gw8AFVqnKvp4JelOjRaT-0" value="SQL (Structured Query Language)" style="rounded=0;whiteSpace=wrap;html=1;fillColor=#dae8fc;strokeColor=#6c8ebf;fontSize=16;" parent="zD9mNbCKYA1uL3fGXbPz-1" vertex="1">
                    <mxGeometry x="40" y="20" width="760" height="40" as="geometry"/>
                </mxCell>
                <mxCell id="gw8AFVqnKvp4JelOjRaT-1" value="&lt;b&gt;C&lt;/b&gt;reate" style="rounded=0;whiteSpace=wrap;html=1;fontSize=16;fillColor=#fff2cc;strokeColor=#d6b656;" parent="zD9mNbCKYA1uL3fGXbPz-1" vertex="1">
                    <mxGeometry x="40" y="80" width="160" height="80" as="geometry"/>
                </mxCell>
                <mxCell id="gw8AFVqnKvp4JelOjRaT-2" value="&lt;b&gt;R&lt;/b&gt;ead" style="rounded=0;whiteSpace=wrap;html=1;fontSize=16;fillColor=#fff2cc;strokeColor=#d6b656;" parent="zD9mNbCKYA1uL3fGXbPz-1" vertex="1">
                    <mxGeometry x="40" y="180" width="160" height="400" as="geometry"/>
                </mxCell>
                <mxCell id="gw8AFVqnKvp4JelOjRaT-3" value="&lt;b&gt;U&lt;/b&gt;pdate" style="rounded=0;whiteSpace=wrap;html=1;fontSize=16;fillColor=#fff2cc;strokeColor=#d6b656;" parent="zD9mNbCKYA1uL3fGXbPz-1" vertex="1">
                    <mxGeometry x="40" y="600" width="160" height="80" as="geometry"/>
                </mxCell>
                <mxCell id="gw8AFVqnKvp4JelOjRaT-4" value="&lt;b&gt;D&lt;/b&gt;elete" style="rounded=0;whiteSpace=wrap;html=1;fontSize=16;fillColor=#fff2cc;strokeColor=#d6b656;" parent="zD9mNbCKYA1uL3fGXbPz-1" vertex="1">
                    <mxGeometry x="40" y="700" width="160" height="80" as="geometry"/>
                </mxCell>
                <mxCell id="gw8AFVqnKvp4JelOjRaT-5" value="INSERT INTO &amp;lt;TableName&amp;gt; (&amp;lt;Field1&amp;gt;, &amp;lt;Field2&amp;gt;, ..., &amp;lt;Fieldn&amp;gt;)&lt;br&gt;VALUES (&amp;lt;Field1Value&amp;gt;, &amp;lt;Field2Value&amp;gt;, ... &amp;lt;FieldnValue&amp;gt;)" style="rounded=0;whiteSpace=wrap;html=1;fontSize=16;align=left;" parent="zD9mNbCKYA1uL3fGXbPz-1" vertex="1">
                    <mxGeometry x="240" y="80" width="560" height="80" as="geometry"/>
                </mxCell>
                <mxCell id="gw8AFVqnKvp4JelOjRaT-6" value="UPDATE &amp;lt;TableName&amp;gt; &lt;br&gt;SET &amp;lt;Field1&amp;gt; = &amp;lt;Field1Value&amp;gt;, &amp;lt;Field2&amp;gt; = &amp;lt;Field2Value&amp;gt;, ..., &amp;lt;Fieldn&amp;gt; = &amp;lt;Fieldnvalue&amp;gt;&lt;br&gt;WHERE &amp;lt;condition&amp;gt;" style="rounded=0;whiteSpace=wrap;html=1;fontSize=16;align=left;" parent="zD9mNbCKYA1uL3fGXbPz-1" vertex="1">
                    <mxGeometry x="240" y="600" width="560" height="80" as="geometry"/>
                </mxCell>
                <mxCell id="gw8AFVqnKvp4JelOjRaT-7" value="DELETE FROM &amp;lt;TableName&amp;gt; &lt;br&gt;WHERE &amp;lt;condition&amp;gt;" style="rounded=0;whiteSpace=wrap;html=1;fontSize=16;align=left;" parent="zD9mNbCKYA1uL3fGXbPz-1" vertex="1">
                    <mxGeometry x="240" y="700" width="560" height="80" as="geometry"/>
                </mxCell>
                <mxCell id="gw8AFVqnKvp4JelOjRaT-8" value="&lt;b&gt;WHERE&lt;/b&gt;&lt;br&gt;&amp;lt;condition&amp;gt;" style="rounded=0;whiteSpace=wrap;html=1;fontSize=16;" parent="zD9mNbCKYA1uL3fGXbPz-1" vertex="1">
                    <mxGeometry x="40" y="820" width="160" height="100" as="geometry"/>
                </mxCell>
                <mxCell id="gw8AFVqnKvp4JelOjRaT-9" value="ID = 3" style="rounded=0;whiteSpace=wrap;html=1;fontSize=16;align=left;" parent="zD9mNbCKYA1uL3fGXbPz-1" vertex="1">
                    <mxGeometry x="240" y="820" width="560" height="40" as="geometry"/>
                </mxCell>
                <mxCell id="gw8AFVqnKvp4JelOjRaT-10" value="LastName LIKE 'Mic%'" style="rounded=0;whiteSpace=wrap;html=1;fontSize=16;align=left;" parent="zD9mNbCKYA1uL3fGXbPz-1" vertex="1">
                    <mxGeometry x="240" y="860" width="560" height="30" as="geometry"/>
                </mxCell>
                <mxCell id="gw8AFVqnKvp4JelOjRaT-11" value="LastName LIKE 'Mic%' AND BirthYear &amp;gt; 2000" style="rounded=0;whiteSpace=wrap;html=1;fontSize=16;align=left;" parent="zD9mNbCKYA1uL3fGXbPz-1" vertex="1">
                    <mxGeometry x="240" y="890" width="560" height="30" as="geometry"/>
                </mxCell>
                <mxCell id="gw8AFVqnKvp4JelOjRaT-12" value="SELECT * FROM &amp;lt;TableName&amp;gt;" style="rounded=0;whiteSpace=wrap;html=1;fontSize=16;align=left;" parent="zD9mNbCKYA1uL3fGXbPz-1" vertex="1">
                    <mxGeometry x="240" y="180" width="560" height="30" as="geometry"/>
                </mxCell>
                <mxCell id="gw8AFVqnKvp4JelOjRaT-13" value="SELECT &amp;lt;Field1&amp;gt;, &amp;lt;Field2&amp;gt;, ..., &amp;lt;Fieldn&amp;gt;&lt;br&gt;FROM &amp;lt;TableName&amp;gt;" style="rounded=0;whiteSpace=wrap;html=1;fontSize=16;align=left;" parent="zD9mNbCKYA1uL3fGXbPz-1" vertex="1">
                    <mxGeometry x="240" y="210" width="560" height="50" as="geometry"/>
                </mxCell>
                <mxCell id="gw8AFVqnKvp4JelOjRaT-14" value="SELECT &amp;lt;Field1&amp;gt;, &amp;lt;Field2&amp;gt;, ..., &amp;lt;Fieldn&amp;gt;&lt;br&gt;FROM &amp;lt;TableName&amp;gt;&lt;br&gt;WHERE &amp;lt;condition&amp;gt;" style="rounded=0;whiteSpace=wrap;html=1;fontSize=16;align=left;" parent="zD9mNbCKYA1uL3fGXbPz-1" vertex="1">
                    <mxGeometry x="240" y="260" width="560" height="70" as="geometry"/>
                </mxCell>
                <mxCell id="gw8AFVqnKvp4JelOjRaT-15" value="SELECT &amp;lt;Field1&amp;gt;, &amp;lt;Field2&amp;gt;, ..., &amp;lt;Fieldn&amp;gt;&lt;br&gt;FROM &amp;lt;TableName&amp;gt;&lt;br&gt;WHERE &amp;lt;condition&amp;gt;&lt;br&gt;ORDER BY &amp;lt;Field1&amp;gt;, &amp;lt;Field2&amp;gt;, ..., &amp;lt;Fieldn&amp;gt;" style="rounded=0;whiteSpace=wrap;html=1;fontSize=16;align=left;" parent="zD9mNbCKYA1uL3fGXbPz-1" vertex="1">
                    <mxGeometry x="240" y="330" width="560" height="90" as="geometry"/>
                </mxCell>
                <mxCell id="gw8AFVqnKvp4JelOjRaT-16" value="&lt;b&gt;ORDER BY&lt;/b&gt;" style="rounded=0;whiteSpace=wrap;html=1;fontSize=16;" parent="zD9mNbCKYA1uL3fGXbPz-1" vertex="1">
                    <mxGeometry x="40" y="940" width="160" height="41" as="geometry"/>
                </mxCell>
                <mxCell id="gw8AFVqnKvp4JelOjRaT-17" value="&amp;lt;Field1&amp;gt;, &amp;lt;Field2&amp;gt; DESC, &amp;lt;Field3&amp;gt;" style="rounded=0;whiteSpace=wrap;html=1;fontSize=16;align=left;" parent="zD9mNbCKYA1uL3fGXbPz-1" vertex="1">
                    <mxGeometry x="240" y="940" width="560" height="41" as="geometry"/>
                </mxCell>
                <mxCell id="gw8AFVqnKvp4JelOjRaT-18" value="SELECT &amp;lt;Tablen&amp;gt;.&amp;lt;Field1&amp;gt;, &amp;lt;Tablen&amp;gt;.&amp;lt;Field2&amp;gt;, ..., &amp;lt;Tablen&amp;gt;.&amp;lt;Fieldn&amp;gt;&lt;br&gt;FROM &amp;lt;Table&amp;gt;&lt;br&gt;INNER JOIN &amp;lt;Table2&amp;gt; ON &amp;lt;Table2&amp;gt;.&amp;lt;ID&amp;gt; = &amp;lt;Table&amp;gt;.&amp;lt;IDTable2&amp;gt;&lt;br&gt;...&lt;br&gt;INNER JOIN &amp;lt;Tablen&amp;gt; ON &amp;lt;Tablen&amp;gt;.&amp;lt;ID&amp;gt; = &amp;lt;Table&amp;gt;.&amp;lt;IDTablen&amp;gt;&lt;br&gt;WHERE &amp;lt;condition&amp;gt;&lt;br&gt;ORDER BY &amp;lt;Tablen&amp;gt;.&amp;lt;Field1&amp;gt;, &amp;lt;Tablen&amp;gt;.&amp;lt;Field2&amp;gt;, ..., &amp;lt;Tablen&amp;gt;.&amp;lt;Fieldn&amp;gt;" style="rounded=0;whiteSpace=wrap;html=1;fontSize=16;align=left;" parent="zD9mNbCKYA1uL3fGXbPz-1" vertex="1">
                    <mxGeometry x="240" y="420" width="560" height="160" as="geometry"/>
                </mxCell>
                <mxCell id="gw8AFVqnKvp4JelOjRaT-19" value="" style="group" parent="zD9mNbCKYA1uL3fGXbPz-1" vertex="1" connectable="0">
                    <mxGeometry x="40" y="1020" width="760" height="41" as="geometry"/>
                </mxCell>
                <mxCell id="gw8AFVqnKvp4JelOjRaT-20" value="&lt;b&gt;Opérateurs&lt;/b&gt;" style="rounded=0;whiteSpace=wrap;html=1;fontSize=16;" parent="gw8AFVqnKvp4JelOjRaT-19" vertex="1">
                    <mxGeometry width="160" height="41" as="geometry"/>
                </mxCell>
                <mxCell id="gw8AFVqnKvp4JelOjRaT-21" value="AND, OR, NOT, =, &amp;lt;, &amp;lt;=, &amp;gt;, &amp;gt;=, LIKE '%xxx%'" style="rounded=0;whiteSpace=wrap;html=1;fontSize=16;align=left;" parent="gw8AFVqnKvp4JelOjRaT-19" vertex="1">
                    <mxGeometry x="200" width="560" height="41" as="geometry"/>
                </mxCell>
                <mxCell id="gw8AFVqnKvp4JelOjRaT-22" value="" style="group" parent="zD9mNbCKYA1uL3fGXbPz-1" vertex="1" connectable="0">
                    <mxGeometry x="40" y="1080" width="760" height="80" as="geometry"/>
                </mxCell>
                <mxCell id="gw8AFVqnKvp4JelOjRaT-23" value="&lt;b&gt;Agrégation&lt;/b&gt;" style="rounded=0;whiteSpace=wrap;html=1;fontSize=16;" parent="gw8AFVqnKvp4JelOjRaT-22" vertex="1">
                    <mxGeometry width="160" height="80" as="geometry"/>
                </mxCell>
                <mxCell id="gw8AFVqnKvp4JelOjRaT-24" value="&lt;b&gt;COUNT&lt;/b&gt; (Nombre) &lt;br&gt;&amp;nbsp; &amp;nbsp; &amp;nbsp;SELECT COUNT * FROM &amp;lt;Table&amp;gt; WHERE &amp;lt;Field&amp;gt; &amp;gt; &amp;lt;Value&amp;gt;)&lt;br&gt;&lt;b&gt;SUM&lt;/b&gt; (somme),&amp;nbsp;&lt;b&gt;AVG&lt;/b&gt; (moyenne), &lt;b&gt;MAX&lt;/b&gt;(valeur maxi, &lt;b&gt;MIN&lt;/b&gt; (valeur mini)&lt;br&gt;&lt;b&gt;DISTINCT&lt;/b&gt;&amp;nbsp;(SELECT DISTINCT &amp;lt;Field1&amp;gt; FROM &amp;lt;Table&amp;gt;)" style="rounded=0;whiteSpace=wrap;html=1;fontSize=16;align=left;" parent="gw8AFVqnKvp4JelOjRaT-22" vertex="1">
                    <mxGeometry x="200" width="560" height="80" as="geometry"/>
                </mxCell>
            </root>
        </mxGraphModel>
    </diagram>
</mxfile>